<?xml version="1.0" encoding="utf-8"?>
<svg width="800px" height="800px" viewBox="0 0 24 24" fill="none" xmlns="http://www.w3.org/2000/svg">
<path d="M19.14 12.94C19.18 12.63 19.2 12.32 19.2 12C19.2 11.68 19.18 11.36 19.13 11.05L21.17 9.46C21.35 9.32 21.4 9.06 21.29 8.85L19.36 5.51C19.24 5.29 18.99 5.2 18.77 5.29L16.38 6.25C15.88 5.87 15.34 5.55 14.74 5.31L14.38 2.77C14.34 2.53 14.14 2.35 13.89 2.35H10.03C9.79 2.35 9.58 2.53 9.55 2.77L9.19 5.31C8.6 5.55 8.05 5.88 7.56 6.25L5.17 5.29C4.94 5.2 4.69 5.29 4.57 5.51L2.64 8.85C2.52 9.06 2.58 9.32 2.76 9.46L4.8 11.05C4.75 11.36 4.72 11.68 4.72 12C4.72 12.32 4.75 12.63 4.8 12.94L2.76 14.54C2.58 14.68 2.52 14.94 2.64 15.15L4.57 18.49C4.69 18.71 4.94 18.8 5.17 18.71L7.56 17.75C8.05 18.13 8.6 18.45 9.19 18.69L9.55 21.23C9.58 21.47 9.79 21.65 10.03 21.65H13.89C14.14 21.65 14.34 21.47 14.38 21.23L14.74 18.69C15.34 18.45 15.88 18.12 16.38 17.75L18.77 18.71C18.99 18.8 19.24 18.71 19.36 18.49L21.29 15.15C21.4 14.94 21.35 14.68 21.17 14.54L19.14 12.94ZM11.96 15.5C10.03 15.5 8.46 13.93 8.46 12C8.46 10.07 10.03 8.5 11.96 8.5C13.89 8.5 15.46 10.07 15.46 12C15.46 13.93 13.89 15.5 11.96 15.5Z" fill="#000000"/>
</svg>
